<svg xmlns="http://www.w3.org/2000/svg" xmlns:xlink="http://www.w3.org/1999/xlink" width="500" zoomAndPan="magnify" viewBox="0 0 375 374.999991" height="500" preserveAspectRatio="xMidYMid meet" version="1.0"><defs><g/><clipPath id="4775aedc6a"><path d="M 105.632812 133.113281 L 243 133.113281 L 243 191 L 105.632812 191 Z M 105.632812 133.113281 " clip-rule="nonzero"/></clipPath><clipPath id="08eb156bac"><path d="M 226 192 L 243.632812 192 L 243.632812 201 L 226 201 Z M 226 192 " clip-rule="nonzero"/></clipPath></defs><rect x="-37.5" width="450" fill="#ffffff" y="-37.499999" height="449.999989" fill-opacity="1"/><rect x="-37.5" width="450" fill="#ffffff" y="-37.499999" height="449.999989" fill-opacity="1"/><g clip-path="url(#4775aedc6a)"><path fill="#ff3131" d="M 200.300781 173.007812 C 191.933594 171.671875 183.976562 168.386719 181.496094 159.804688 C 179.988281 154.585938 178.945312 145 184.496094 141.609375 C 188.914062 138.910156 195.234375 139.605469 200.167969 139.59375 C 208.429688 139.574219 216.6875 140.78125 224.59375 143.167969 C 228.519531 144.351562 231.722656 145.4375 234.445312 147.71875 C 235.023438 148.203125 236.269531 149.363281 237.503906 151.117188 C 239.847656 154.449219 240.761719 158.035156 241.148438 160.378906 C 241.226562 162.203125 241.335938 166.261719 239.3125 169.8125 C 238.789062 170.722656 238.167969 171.550781 237.253906 172.226562 C 235.789062 173.308594 233.972656 173.707031 231.84375 173.769531 C 221.519531 174.078125 210.53125 174.640625 200.300781 173.007812 Z M 239.5 187.367188 C 241.433594 185.453125 241.878906 182.890625 242.136719 178.859375 C 242.761719 169.003906 241.746094 161.273438 241.300781 159.699219 C 241.132812 158.347656 240.855469 156.617188 240.410156 154.589844 C 239.632812 151.070312 238.066406 147.167969 237.191406 144.246094 C 235.183594 137.519531 219.054688 136.488281 212.960938 135.414062 C 200.636719 133.246094 191.425781 133.113281 187.351562 133.144531 C 182.515625 133.183594 179.53125 133.484375 177.300781 133.792969 C 171.671875 134.574219 167.242188 135.910156 163.035156 137.359375 C 151.484375 141.34375 142.554688 145.90625 140.769531 146.804688 C 118.523438 158.03125 105.757812 166.136719 105.980469 166.535156 C 106.183594 166.898438 116.644531 159.796875 131.914062 158.433594 C 135.179688 158.140625 142.925781 157.449219 143.910156 160.050781 C 145.308594 163.75 132.179688 171.695312 131.589844 172.046875 C 124.296875 176.410156 117.726562 178.113281 115.890625 178.464844 C 119.175781 178.152344 137.628906 176.582031 149.097656 163.941406 C 151.628906 161.148438 154.785156 156.757812 158.820312 157.136719 C 160.730469 157.3125 162.410156 158.527344 166.601562 163.941406 C 173.140625 172.390625 175.921875 178.390625 176.328125 178.207031 C 176.800781 177.992188 174.578125 169.207031 168.546875 160.375 C 164.210938 154.027344 159.320312 149.734375 155.753906 147.050781 C 158.058594 145.902344 161.410156 144.550781 165.628906 143.84375 C 168.347656 143.390625 170.796875 143.308594 172.839844 143.394531 C 171.613281 143.910156 170.753906 145.121094 170.753906 146.535156 L 170.753906 159.910156 C 170.753906 161.789062 172.277344 163.316406 174.15625 163.316406 C 175.15625 163.316406 176.054688 162.882812 176.675781 162.199219 C 177.09375 165.910156 177.527344 169.621094 177.976562 173.328125 C 178.488281 177.546875 179.019531 181.769531 179.570312 185.984375 C 180.085938 189.988281 199.5 189.59375 202.1875 189.714844 C 212.074219 190.144531 221.984375 190.140625 231.871094 189.699219 C 235.722656 189.527344 238.042969 188.8125 239.5 187.367188 " fill-opacity="1" fill-rule="nonzero"/></g><path fill="#ff3131" d="M 115.382812 178.53125 C 115.386719 178.546875 115.566406 178.527344 115.890625 178.464844 C 115.554688 178.496094 115.378906 178.515625 115.382812 178.53125 " fill-opacity="1" fill-rule="nonzero"/><path fill="#ff3131" d="M 201.019531 194.371094 C 200.878906 193.941406 200.484375 193.644531 200.035156 193.617188 C 194.59375 193.320312 189.445312 192.855469 184.621094 192.273438 C 182.609375 192.03125 180.835938 193.597656 180.835938 195.625 L 180.835938 196.433594 C 180.835938 198.167969 182.144531 199.617188 183.867188 199.792969 C 189.398438 200.359375 195.34375 200.78125 201.652344 200.980469 C 202.417969 201.003906 202.976562 200.261719 202.734375 199.535156 L 201.019531 194.371094 " fill-opacity="1" fill-rule="nonzero"/><g clip-path="url(#08eb156bac)"><path fill="#ff3131" d="M 243.609375 195.707031 C 243.609375 195.683594 243.605469 195.660156 243.605469 195.636719 C 243.511719 193.691406 241.792969 192.222656 239.855469 192.445312 C 236.324219 192.847656 232.613281 193.191406 228.738281 193.449219 C 228.253906 193.480469 227.84375 193.828125 227.738281 194.304688 L 226.664062 199.125 C 226.503906 199.84375 227.082031 200.511719 227.816406 200.460938 C 232.304688 200.140625 236.589844 199.714844 240.648438 199.21875 C 242.40625 199.003906 243.695312 197.472656 243.609375 195.707031 " fill-opacity="1" fill-rule="nonzero"/></g><path fill="#ff3131" d="M 228.980469 149.558594 L 195.265625 165.441406 C 195.265625 165.441406 206.289062 161.226562 228.980469 149.558594 " fill-opacity="1" fill-rule="nonzero"/><path fill="#ff3131" d="M 190.195312 165.441406 C 190.195312 165.441406 201.21875 161.226562 223.910156 149.558594 L 190.195312 165.441406 " fill-opacity="1" fill-rule="nonzero"/><g fill="#ffffff" fill-opacity="1"><g transform="translate(159.810642, 231.324213)"><g><path d="M 20.515625 -8.171875 C 20.515625 -6.503906 20.085938 -5.019531 19.234375 -3.71875 C 18.390625 -2.425781 17.171875 -1.421875 15.578125 -0.703125 C 13.984375 0.015625 12.113281 0.375 9.96875 0.375 C 8.175781 0.375 6.671875 0.25 5.453125 0 C 4.234375 -0.257812 2.96875 -0.703125 1.65625 -1.328125 L 1.65625 -7.8125 C 3.039062 -7.09375 4.484375 -6.535156 5.984375 -6.140625 C 7.484375 -5.742188 8.859375 -5.546875 10.109375 -5.546875 C 11.191406 -5.546875 11.984375 -5.734375 12.484375 -6.109375 C 12.984375 -6.484375 13.234375 -6.960938 13.234375 -7.546875 C 13.234375 -7.921875 13.132812 -8.242188 12.9375 -8.515625 C 12.738281 -8.796875 12.414062 -9.078125 11.96875 -9.359375 C 11.519531 -9.640625 10.320312 -10.21875 8.375 -11.09375 C 6.625 -11.882812 5.304688 -12.65625 4.421875 -13.40625 C 3.546875 -14.15625 2.894531 -15.015625 2.46875 -15.984375 C 2.050781 -16.953125 1.84375 -18.101562 1.84375 -19.4375 C 1.84375 -21.914062 2.742188 -23.847656 4.546875 -25.234375 C 6.347656 -26.617188 8.828125 -27.3125 11.984375 -27.3125 C 14.773438 -27.3125 17.617188 -26.664062 20.515625 -25.375 L 18.28125 -19.765625 C 15.769531 -20.921875 13.597656 -21.5 11.765625 -21.5 C 10.816406 -21.5 10.128906 -21.332031 9.703125 -21 C 9.273438 -20.664062 9.0625 -20.253906 9.0625 -19.765625 C 9.0625 -19.234375 9.332031 -18.757812 9.875 -18.34375 C 10.425781 -17.925781 11.910156 -17.164062 14.328125 -16.0625 C 16.648438 -15.019531 18.257812 -13.898438 19.15625 -12.703125 C 20.0625 -11.503906 20.515625 -9.992188 20.515625 -8.171875 Z M 20.515625 -8.171875 "/></g></g></g><g fill="#ffffff" fill-opacity="1"><g transform="translate(181.582213, 231.324213)"><g><path d="M 15.015625 0.375 C 13.953125 0.375 13.003906 0.195312 12.171875 -0.15625 C 11.335938 -0.507812 10.507812 -1.140625 9.6875 -2.046875 L 9.359375 -2.046875 C 9.578125 -0.585938 9.6875 0.320312 9.6875 0.6875 L 9.6875 9.0625 L 2.484375 9.0625 L 2.484375 -20.859375 L 8.34375 -20.859375 L 9.359375 -18.21875 L 9.6875 -18.21875 C 11.019531 -20.226562 12.867188 -21.234375 15.234375 -21.234375 C 17.535156 -21.234375 19.34375 -20.273438 20.65625 -18.359375 C 21.976562 -16.441406 22.640625 -13.816406 22.640625 -10.484375 C 22.640625 -7.117188 21.953125 -4.46875 20.578125 -2.53125 C 19.210938 -0.59375 17.359375 0.375 15.015625 0.375 Z M 12.59375 -15.578125 C 11.539062 -15.578125 10.800781 -15.195312 10.375 -14.4375 C 9.957031 -13.6875 9.726562 -12.570312 9.6875 -11.09375 L 9.6875 -10.515625 C 9.6875 -8.722656 9.925781 -7.425781 10.40625 -6.625 C 10.882812 -5.832031 11.640625 -5.4375 12.671875 -5.4375 C 13.585938 -5.4375 14.253906 -5.832031 14.671875 -6.625 C 15.097656 -7.414062 15.3125 -8.722656 15.3125 -10.546875 C 15.3125 -12.335938 15.097656 -13.625 14.671875 -14.40625 C 14.253906 -15.1875 13.5625 -15.578125 12.59375 -15.578125 Z M 12.59375 -15.578125 "/></g></g></g><g fill="#ffffff" fill-opacity="1"><g transform="translate(205.84039, 231.324213)"><g><path d="M 22.40625 -10.484375 C 22.40625 -7.066406 21.488281 -4.398438 19.65625 -2.484375 C 17.820312 -0.578125 15.253906 0.375 11.953125 0.375 C 8.785156 0.375 6.265625 -0.597656 4.390625 -2.546875 C 2.515625 -4.503906 1.578125 -7.148438 1.578125 -10.484375 C 1.578125 -13.878906 2.492188 -16.519531 4.328125 -18.40625 C 6.171875 -20.289062 8.75 -21.234375 12.0625 -21.234375 C 14.113281 -21.234375 15.925781 -20.796875 17.5 -19.921875 C 19.070312 -19.054688 20.28125 -17.804688 21.125 -16.171875 C 21.976562 -14.546875 22.40625 -12.648438 22.40625 -10.484375 Z M 8.890625 -10.484375 C 8.890625 -8.691406 9.128906 -7.320312 9.609375 -6.375 C 10.085938 -5.4375 10.894531 -4.96875 12.03125 -4.96875 C 13.144531 -4.96875 13.929688 -5.4375 14.390625 -6.375 C 14.847656 -7.320312 15.078125 -8.691406 15.078125 -10.484375 C 15.078125 -12.265625 14.84375 -13.609375 14.375 -14.515625 C 13.914062 -15.421875 13.117188 -15.875 11.984375 -15.875 C 10.878906 -15.875 10.085938 -15.421875 9.609375 -14.515625 C 9.128906 -13.617188 8.890625 -12.273438 8.890625 -10.484375 Z M 8.890625 -10.484375 "/></g></g></g><g fill="#ffffff" fill-opacity="1"><g transform="translate(229.877536, 231.324213)"><g><path d="M 12.703125 -5.328125 C 13.671875 -5.328125 14.832031 -5.566406 16.1875 -6.046875 L 16.1875 -0.796875 C 15.21875 -0.378906 14.289062 -0.0820312 13.40625 0.09375 C 12.53125 0.28125 11.503906 0.375 10.328125 0.375 C 7.910156 0.375 6.164062 -0.21875 5.09375 -1.40625 C 4.03125 -2.59375 3.5 -4.414062 3.5 -6.875 L 3.5 -15.46875 L 0.96875 -15.46875 L 0.96875 -18.40625 L 4.1875 -20.671875 L 6.046875 -25.046875 L 10.75 -25.046875 L 10.75 -20.859375 L 15.875 -20.859375 L 15.875 -15.46875 L 10.75 -15.46875 L 10.75 -7.34375 C 10.75 -6 11.398438 -5.328125 12.703125 -5.328125 Z M 12.703125 -5.328125 "/></g></g></g></svg>